<?xml version="1.0" encoding="UTF-8" standalone="yes"?>
<svg viewBox="0 0 20 20" fill="none">
        <path
            fill="#ff0000"
            fillRule="evenodd"
            clipRule="evenodd"
            d="M17.3534 0.646447C17.5487 0.841709 17.5487 1.15829 17.3534 1.35355L9.70698 9L17.3534 16.6464C17.5487 16.8417 17.5487 17.1583 17.3534 17.3536C17.1582 17.5488 16.8416 17.5488 16.6463 17.3536L8.99987 9.70711L1.35355 17.3534C1.15829 17.5487 0.841709 17.5487 0.646447 17.3534C0.451184 17.1582 0.451184 16.8416 0.646447 16.6463L8.29276 9L0.646447 1.35368C0.451184 1.15842 0.451184 0.841839 0.646447 0.646577C0.841709 0.451315 1.15829 0.451315 1.35355 0.646577L8.99987 8.29289L16.6463 0.646447C16.8416 0.451184 17.1582 0.451184 17.3534 0.646447Z"
        />
    </svg>